<svg xmlns="http://www.w3.org/2000/svg" xmlns:xlink="http://www.w3.org/1999/xlink" width="90" zoomAndPan="magnify" viewBox="0 0 67.5 67.499996" height="90" preserveAspectRatio="xMidYMid meet" version="1.0"><defs><g/><clipPath id="4e5bfb44c6"><path d="M 9.828125 8.082031 L 55 8.082031 L 55 52.054688 L 9.828125 52.054688 Z M 9.828125 8.082031 " clip-rule="nonzero"/></clipPath><clipPath id="23f2c2dd83"><path d="M 12.828125 8.082031 L 52 8.082031 C 52.792969 8.082031 53.558594 8.394531 54.121094 8.957031 C 54.683594 9.519531 55 10.285156 55 11.082031 L 55 49.054688 C 55 49.851562 54.683594 50.613281 54.121094 51.175781 C 53.558594 51.738281 52.792969 52.054688 52 52.054688 L 12.828125 52.054688 C 12.035156 52.054688 11.269531 51.738281 10.707031 51.175781 C 10.144531 50.613281 9.828125 49.851562 9.828125 49.054688 L 9.828125 11.082031 C 9.828125 10.285156 10.144531 9.519531 10.707031 8.957031 C 11.269531 8.394531 12.035156 8.082031 12.828125 8.082031 " clip-rule="nonzero"/></clipPath><clipPath id="61debc742c"><path d="M 9.828125 8.082031 L 54.828125 8.082031 L 54.828125 52.332031 L 9.828125 52.332031 Z M 9.828125 8.082031 " clip-rule="nonzero"/></clipPath><clipPath id="d98f2fe2ee"><path d="M 12.816406 8.082031 L 51.839844 8.082031 C 52.632812 8.082031 53.394531 8.398438 53.953125 8.964844 C 54.515625 9.53125 54.828125 10.296875 54.828125 11.097656 L 54.828125 49.3125 C 54.828125 50.113281 54.515625 50.878906 53.953125 51.445312 C 53.394531 52.011719 52.632812 52.332031 51.839844 52.332031 L 12.816406 52.332031 C 12.027344 52.332031 11.265625 52.011719 10.703125 51.445312 C 10.144531 50.878906 9.828125 50.113281 9.828125 49.3125 L 9.828125 11.097656 C 9.828125 10.296875 10.144531 9.53125 10.703125 8.964844 C 11.265625 8.398438 12.027344 8.082031 12.816406 8.082031 " clip-rule="nonzero"/></clipPath><clipPath id="e022e758ca"><path d="M 15.578125 10.875 L 60.75 10.875 L 60.75 54.851562 L 15.578125 54.851562 Z M 15.578125 10.875 " clip-rule="nonzero"/></clipPath><clipPath id="16712c5fae"><path d="M 18.578125 10.875 L 57.75 10.875 C 58.546875 10.875 59.308594 11.191406 59.871094 11.753906 C 60.433594 12.316406 60.75 13.082031 60.75 13.875 L 60.75 51.851562 C 60.75 52.648438 60.433594 53.410156 59.871094 53.972656 C 59.308594 54.535156 58.546875 54.851562 57.75 54.851562 L 18.578125 54.851562 C 17.785156 54.851562 17.019531 54.535156 16.457031 53.972656 C 15.894531 53.410156 15.578125 52.648438 15.578125 51.851562 L 15.578125 13.875 C 15.578125 13.082031 15.894531 12.316406 16.457031 11.753906 C 17.019531 11.191406 17.785156 10.875 18.578125 10.875 " clip-rule="nonzero"/></clipPath></defs><g clip-path="url(#4e5bfb44c6)"><g clip-path="url(#23f2c2dd83)"><path fill="#f09300" d="M 9.828125 8.082031 L 55 8.082031 L 55 52.054688 L 9.828125 52.054688 Z M 9.828125 8.082031 " fill-opacity="1" fill-rule="nonzero"/></g></g><g clip-path="url(#61debc742c)"><g clip-path="url(#d98f2fe2ee)"><path stroke-linecap="butt" transform="matrix(0.747275, 0, 0, 0.754797, 9.829611, 8.080162)" fill="none" stroke-linejoin="miter" d="M 3.996914 0.00247685 L 56.217868 0.00247685 C 57.279015 0.00247685 58.298343 0.42167 59.04585 1.172079 C 59.798584 1.922487 60.21677 2.936832 60.21677 3.997754 L 60.21677 54.627029 C 60.21677 55.687951 59.798584 56.702296 59.04585 57.452705 C 58.298343 58.203113 57.279015 58.627482 56.217868 58.627482 L 3.996914 58.627482 C 2.940995 58.627482 1.921667 58.203113 1.168932 57.452705 C 0.421425 56.702296 -0.00198813 55.687951 -0.00198813 54.627029 L -0.00198813 3.997754 C -0.00198813 2.936832 0.421425 1.922487 1.168932 1.172079 C 1.921667 0.42167 2.940995 0.00247685 3.996914 0.00247685 " stroke="#f09300" stroke-width="2" stroke-opacity="1" stroke-miterlimit="4"/></g></g><g clip-path="url(#e022e758ca)"><g clip-path="url(#16712c5fae)"><path fill="#2178ae" d="M 15.578125 10.875 L 60.75 10.875 L 60.75 54.851562 L 15.578125 54.851562 Z M 15.578125 10.875 " fill-opacity="1" fill-rule="nonzero"/></g></g><g fill="#febba1" fill-opacity="1"><g transform="translate(17.652648, 30.189219)"><g><path d="M 4.441406 -5.628906 L 0.46875 -5.628906 C 0.273438 -5.628906 0.222656 -5.535156 0.222656 -5.382812 L 0.222656 -4.671875 C 0.222656 -4.515625 0.273438 -4.421875 0.46875 -4.421875 L 1.789062 -4.421875 L 1.789062 -0.25 C 1.789062 -0.0507812 1.882812 0 2.035156 0 L 2.882812 0 C 3.039062 0 3.132812 -0.0507812 3.132812 -0.25 L 3.132812 -4.421875 L 4.441406 -4.421875 C 4.636719 -4.421875 4.6875 -4.515625 4.6875 -4.671875 L 4.6875 -5.382812 C 4.6875 -5.535156 4.636719 -5.628906 4.441406 -5.628906 Z M 4.441406 -5.628906 "/></g></g></g><g fill="#febba1" fill-opacity="1"><g transform="translate(22.563585, 30.189219)"><g><path d="M 4.980469 -5.628906 L 4.132812 -5.628906 C 3.976562 -5.628906 3.882812 -5.578125 3.882812 -5.382812 L 3.882812 -3.449219 L 1.976562 -3.449219 L 1.976562 -5.382812 C 1.976562 -5.578125 1.890625 -5.628906 1.726562 -5.628906 L 0.882812 -5.628906 C 0.726562 -5.628906 0.632812 -5.578125 0.632812 -5.382812 L 0.632812 -0.25 C 0.632812 -0.0507812 0.726562 0 0.882812 0 L 1.726562 0 C 1.890625 0 1.976562 -0.0507812 1.976562 -0.25 L 1.976562 -2.183594 L 3.882812 -2.183594 L 3.882812 -0.25 C 3.882812 -0.0507812 3.976562 0 4.132812 0 L 4.980469 0 C 5.132812 0 5.226562 -0.0507812 5.226562 -0.25 L 5.226562 -5.382812 C 5.226562 -5.578125 5.132812 -5.628906 4.980469 -5.628906 Z M 4.980469 -5.628906 "/></g></g></g><g fill="#febba1" fill-opacity="1"><g transform="translate(28.424204, 30.189219)"><g><path d="M 4.714844 -1.199219 L 1.984375 -1.199219 L 1.984375 -2.328125 L 4.277344 -2.328125 C 4.472656 -2.328125 4.527344 -2.421875 4.527344 -2.574219 L 4.527344 -3.242188 C 4.527344 -3.398438 4.472656 -3.492188 4.277344 -3.492188 L 1.984375 -3.492188 L 1.984375 -4.421875 L 4.570312 -4.421875 C 4.765625 -4.421875 4.816406 -4.515625 4.816406 -4.671875 L 4.816406 -5.382812 C 4.816406 -5.535156 4.765625 -5.628906 4.570312 -5.628906 L 0.882812 -5.628906 C 0.683594 -5.628906 0.632812 -5.535156 0.632812 -5.382812 L 0.632812 -0.25 C 0.632812 -0.09375 0.683594 0 0.882812 0 L 4.714844 0 C 4.910156 0 4.960938 -0.09375 4.960938 -0.25 L 4.960938 -0.949219 C 4.960938 -1.105469 4.910156 -1.199219 4.714844 -1.199219 Z M 4.714844 -1.199219 "/></g></g></g><g fill="#febba1" fill-opacity="1"><g transform="translate(17.652648, 41.596662)"><g><path d="M 4.140625 -5.671875 L 1.546875 -5.671875 C 1.34375 -5.671875 1.300781 -5.578125 1.300781 -5.425781 L 1.300781 -4.714844 C 1.300781 -4.558594 1.34375 -4.464844 1.546875 -4.464844 L 3.046875 -4.464844 L 3.046875 -2.027344 C 3.046875 -1.496094 2.832031 -1.1875 2.265625 -1.1875 C 1.882812 -1.1875 1.609375 -1.394531 1.582031 -1.898438 C 1.582031 -1.941406 1.566406 -2.078125 1.367188 -2.078125 L 0.460938 -2.078125 C 0.265625 -2.078125 0.257812 -1.890625 0.257812 -1.847656 C 0.257812 -0.640625 1.128906 0 2.265625 0 C 3.285156 0 4.390625 -0.503906 4.390625 -1.839844 L 4.390625 -5.425781 C 4.390625 -5.578125 4.335938 -5.671875 4.140625 -5.671875 Z M 4.140625 -5.671875 "/></g></g></g><g fill="#febba1" fill-opacity="1"><g transform="translate(22.614923, 41.596662)"><g><path d="M 5.054688 -1.804688 L 5.054688 -3.824219 C 5.054688 -5.175781 3.773438 -5.757812 2.753906 -5.757812 C 1.738281 -5.757812 0.46875 -5.175781 0.46875 -3.824219 L 0.46875 -1.804688 C 0.46875 -0.453125 1.738281 0.128906 2.753906 0.128906 C 3.773438 0.128906 5.054688 -0.453125 5.054688 -1.804688 Z M 3.714844 -3.703125 L 3.714844 -1.925781 C 3.714844 -1.378906 3.320312 -1.0625 2.753906 -1.0625 C 2.199219 -1.0625 1.804688 -1.378906 1.804688 -1.925781 L 1.804688 -3.703125 C 1.804688 -4.253906 2.199219 -4.570312 2.753906 -4.570312 C 3.320312 -4.570312 3.714844 -4.253906 3.714844 -3.703125 Z M 3.714844 -3.703125 "/></g></g></g><g fill="#febba1" fill-opacity="1"><g transform="translate(28.13331, 41.596662)"><g><path d="M 5.246094 -0.273438 L 4.039062 -2.027344 C 4.570312 -2.207031 5.226562 -2.832031 5.226562 -3.730469 C 5.226562 -4.277344 5.046875 -4.765625 4.730469 -5.074219 C 4.371094 -5.433594 3.960938 -5.621094 3.027344 -5.621094 L 0.871094 -5.621094 C 0.675781 -5.621094 0.632812 -5.527344 0.632812 -5.371094 L 0.632812 -0.25 C 0.632812 -0.0507812 0.71875 0 0.871094 0 L 1.71875 0 C 1.875 0 1.96875 -0.0507812 1.96875 -0.25 L 1.96875 -4.421875 L 3.105469 -4.421875 C 3.550781 -4.421875 3.894531 -4.140625 3.894531 -3.695312 C 3.894531 -3.292969 3.5 -3.003906 3.078125 -3.003906 L 2.910156 -3.003906 C 2.710938 -3.003906 2.660156 -2.910156 2.660156 -2.753906 L 2.660156 -2.070312 C 2.660156 -1.832031 2.679688 -1.738281 2.753906 -1.632812 L 3.679688 -0.257812 C 3.796875 -0.078125 3.902344 0 4.105469 0 L 5.117188 0 C 5.277344 0 5.320312 -0.152344 5.246094 -0.273438 Z M 5.246094 -0.273438 "/></g></g></g><g fill="#febba1" fill-opacity="1"><g transform="translate(33.831364, 41.596662)"><g><path d="M 4.953125 -5.628906 L 4.132812 -5.628906 C 3.976562 -5.628906 3.882812 -5.578125 3.882812 -5.382812 L 3.882812 -2.414062 L 2.070312 -5.339844 C 1.960938 -5.511719 1.898438 -5.628906 1.683594 -5.628906 L 0.882812 -5.628906 C 0.683594 -5.628906 0.632812 -5.535156 0.632812 -5.382812 L 0.632812 -0.25 C 0.632812 -0.0507812 0.726562 0 0.882812 0 L 1.726562 0 C 1.882812 0 1.976562 -0.0507812 1.976562 -0.25 L 1.976562 -3.226562 L 3.789062 -0.289062 C 3.902344 -0.121094 3.960938 0 4.175781 0 L 4.953125 0 C 5.152344 0 5.203125 -0.09375 5.203125 -0.25 L 5.203125 -5.382812 C 5.203125 -5.578125 5.109375 -5.628906 4.953125 -5.628906 Z M 4.953125 -5.628906 "/></g></g></g><g fill="#febba1" fill-opacity="1"><g transform="translate(39.666308, 41.596662)"><g><path d="M 4.84375 -5.628906 L 3.996094 -5.628906 C 3.839844 -5.628906 3.746094 -5.578125 3.746094 -5.382812 L 3.746094 -1.90625 C 3.746094 -1.367188 3.386719 -1.0625 2.824219 -1.0625 C 2.257812 -1.0625 1.90625 -1.367188 1.90625 -1.90625 L 1.90625 -5.382812 C 1.90625 -5.578125 1.8125 -5.628906 1.660156 -5.628906 L 0.8125 -5.628906 C 0.660156 -5.628906 0.566406 -5.578125 0.566406 -5.382812 L 0.566406 -1.71875 C 0.566406 -0.375 1.804688 0.128906 2.824219 0.128906 C 3.839844 0.128906 5.089844 -0.375 5.089844 -1.71875 L 5.089844 -5.382812 C 5.089844 -5.578125 4.996094 -5.628906 4.84375 -5.628906 Z M 4.84375 -5.628906 "/></g></g></g><g fill="#febba1" fill-opacity="1"><g transform="translate(45.321585, 41.596662)"><g><path d="M 5.476562 -0.238281 L 3.585938 -5.363281 C 3.507812 -5.542969 3.421875 -5.628906 3.234375 -5.628906 L 2.414062 -5.628906 C 2.222656 -5.628906 2.128906 -5.542969 2.0625 -5.363281 L 0.164062 -0.238281 C 0.121094 -0.136719 0.121094 0 0.308594 0 L 1.207031 0 C 1.394531 0 1.464844 -0.0507812 1.53125 -0.257812 L 1.769531 -0.933594 L 3.867188 -0.933594 L 4.105469 -0.257812 C 4.175781 -0.0507812 4.242188 0 4.433594 0 L 5.332031 0 C 5.519531 0 5.519531 -0.136719 5.476562 -0.238281 Z M 2.824219 -4.019531 L 3.464844 -2.128906 L 2.183594 -2.128906 Z M 2.824219 -4.019531 "/></g></g></g><g fill="#febba1" fill-opacity="1"><g transform="translate(50.925536, 41.596662)"><g><path d="M 4.441406 -1.199219 L 1.976562 -1.199219 L 1.976562 -5.382812 C 1.976562 -5.578125 1.882812 -5.628906 1.726562 -5.628906 L 0.882812 -5.628906 C 0.726562 -5.628906 0.632812 -5.578125 0.632812 -5.382812 L 0.632812 -0.25 C 0.632812 -0.09375 0.683594 0 0.882812 0 L 4.441406 0 C 4.636719 0 4.6875 -0.09375 4.6875 -0.25 L 4.6875 -0.949219 C 4.6875 -1.105469 4.636719 -1.199219 4.441406 -1.199219 Z M 4.441406 -1.199219 "/></g></g></g></svg>